<svg width="34" height="34" viewBox="0 0 34 34" fill="none" xmlns="http://www.w3.org/2000/svg">
<path d="M6.29159 19.6685C5.70609 20.0158 5.3125 20.6541 5.3125 21.3828C5.3125 22.4813 6.2062 23.375 7.30469 23.375C8.17036 23.375 8.90853 22.8198 9.18266 22.0469H14.3438C15.4422 22.0469 16.3359 22.9406 16.3359 24.0391C16.3359 25.1376 15.4422 26.0312 14.3438 26.0312H6.375C4.54418 26.0312 3.05469 27.5207 3.05469 29.3516C3.05469 31.1824 4.54418 32.6719 6.375 32.6719H13.0156C13.3824 32.6719 13.6797 32.3746 13.6797 32.0078C13.6797 31.6411 13.3824 31.3438 13.0156 31.3438H6.375C5.27651 31.3438 4.38281 30.4501 4.38281 29.3516C4.38281 28.2531 5.27651 27.3594 6.375 27.3594H14.3438C16.1746 27.3594 17.6641 25.8699 17.6641 24.0391C17.6641 22.2082 16.1746 20.7188 14.3438 20.7188H9.18266C9.02561 20.276 8.71628 19.9048 8.31778 19.6685L13.3898 11.3467C14.1876 10.1474 14.6094 8.74995 14.6094 7.30469C14.6094 3.27688 11.3325 0 7.30469 0C3.27688 0 0 3.27688 0 7.30469C0 8.74995 0.421746 10.1474 1.21962 11.3467L6.29159 19.6685ZM7.30469 22.0469C6.93852 22.0469 6.64062 21.749 6.64062 21.3828C6.64062 21.0166 6.93852 20.7188 7.30469 20.7188C7.67085 20.7188 7.96875 21.0166 7.96875 21.3828C7.96875 21.749 7.67085 22.0469 7.30469 22.0469ZM7.30469 1.32812C10.6002 1.32812 13.2812 4.00921 13.2812 7.30469C13.2812 8.49123 12.9341 9.63787 12.2775 10.6207C12.2724 10.6283 12.2674 10.6361 12.2626 10.644L7.30469 18.7787C7.30469 18.7787 2.33697 10.6283 2.33186 10.6207C1.67523 9.63787 1.32812 8.49123 1.32812 7.30469C1.32812 4.00921 4.00921 1.32812 7.30469 1.32812Z" fill="black"/>
<path d="M7.30469 10.625C9.13551 10.625 10.625 9.13551 10.625 7.30469C10.625 5.47387 9.13551 3.98438 7.30469 3.98438C5.47387 3.98438 3.98438 5.47387 3.98438 7.30469C3.98438 9.13551 5.47387 10.625 7.30469 10.625ZM7.30469 5.3125C8.40318 5.3125 9.29688 6.2062 9.29688 7.30469C9.29688 8.40318 8.40318 9.29688 7.30469 9.29688C6.2062 9.29688 5.3125 8.40318 5.3125 7.30469C5.3125 6.2062 6.2062 5.3125 7.30469 5.3125Z" fill="black"/>
<path d="M26.6953 11.0234C22.6675 11.0234 19.3906 14.3003 19.3906 18.3281C19.3906 19.7757 19.8137 21.1753 20.6141 22.3759L25.6671 30.3021C25.2759 30.5388 24.9725 30.9065 24.8174 31.3438H18.9922C18.6254 31.3438 18.3281 31.6411 18.3281 32.0078C18.3281 32.3746 18.6254 32.6719 18.9922 32.6719H24.8173C25.0915 33.4448 25.8296 34 26.6953 34C27.7938 34 28.6875 33.1063 28.6875 32.0078C28.6875 31.2852 28.3008 30.6514 27.7235 30.3021L32.7766 22.3759C33.5769 21.1753 34 19.7757 34 18.3281C34 14.3003 30.7231 11.0234 26.6953 11.0234ZM26.6953 32.6719C26.3291 32.6719 26.0312 32.374 26.0312 32.0078C26.0312 31.6416 26.3291 31.3438 26.6953 31.3438C27.0615 31.3438 27.3594 31.6416 27.3594 32.0078C27.3594 32.374 27.0615 32.6719 26.6953 32.6719ZM31.6681 21.6441C31.6656 21.6481 26.6953 29.4443 26.6953 29.4443C26.6953 29.4443 21.7251 21.648 21.7225 21.6441C21.0659 20.6613 20.7188 19.5147 20.7188 18.3281C20.7188 15.0326 23.3998 12.3516 26.6953 12.3516C29.9908 12.3516 32.6719 15.0326 32.6719 18.3281C32.6719 19.5147 32.3248 20.6613 31.6681 21.6441Z" fill="black"/>
<path d="M26.6953 15.0078C24.8645 15.0078 23.375 16.4973 23.375 18.3281C23.375 20.1589 24.8645 21.6484 26.6953 21.6484C28.5261 21.6484 30.0156 20.1589 30.0156 18.3281C30.0156 16.4973 28.5261 15.0078 26.6953 15.0078ZM26.6953 20.3203C25.5968 20.3203 24.7031 19.4266 24.7031 18.3281C24.7031 17.2296 25.5968 16.3359 26.6953 16.3359C27.7938 16.3359 28.6875 17.2296 28.6875 18.3281C28.6875 19.4266 27.7938 20.3203 26.6953 20.3203Z" fill="black"/>
<path d="M16.0039 32.6719C16.3707 32.6719 16.668 32.3746 16.668 32.0078C16.668 31.6411 16.3707 31.3438 16.0039 31.3438C15.6372 31.3438 15.3398 31.6411 15.3398 32.0078C15.3398 32.3746 15.6372 32.6719 16.0039 32.6719Z" fill="black"/>
</svg>
