<?xml version="1.0" encoding="UTF-8"?><svg id="Layer_1" xmlns="http://www.w3.org/2000/svg" viewBox="0 0 293.48 293.48"><defs><style>.cls-1{fill:#253c80;}.cls-2{fill:#fff;}</style></defs><path d="M278.19,225.23l-15.18-.18-.1-140.44c0-4.81-3.9-8.46-8.5-8.51l-10.23-.08-.12-12.07c-.02-1.71-1.71-2.76-3.16-2.66-1.54.11-2.6,1.46-2.61,3.2l-.09,11.6h-30.16s-.08-12.1-.08-12.1c0-1.47-1.62-2.72-2.9-2.74-1.26-.01-2.92,1.25-2.93,2.69l-.08,12.1-9.43.07c-4.88-.3-9.33,3.46-9.33,8.49l-.03,45.56c-8.96,1.67-15.17,9.05-15.15,18.28l.06,39.25c.01,7.73-5.22,13.67-13.39,13.22l-.2-12.26c-.11-6.96-3.93-10.61-7.04-15.68l9.96-3.26c4.11-1.35,5.81-6.07,4.88-9.66-1.12-4.35-4.86-6.23-9.24-6.18l-8.47.07c-3.11.03-5.4,1.86-7.29,4.37l-10.58-20.43c-2.42-4.69-6.83-8.09-12.24-8.93-17.43-2.71-34.82-2.92-52.19-.26-5.83.89-10.65,3.84-13.35,9.03l-10.69,20.61c-1.82-2.41-3.95-4.35-6.95-4.36l-10.09-.04c-4.24-.02-7.54,3.12-8.15,7.18-.53,3.55,1.69,7.59,5.6,8.83l9.72,3.08c-4.7,4.95-7.54,10.46-7.54,17.02l-.02,35.24c0,3.31,2.79,6.83,6.18,6.86l14.32.13c3.44.03,6.7-1.88,7.35-5.56.28-1.64.19-3.77.06-5.46l-11.26-.04c-1.65,0-2.78-1.47-2.66-3.02.08-1.15,1.13-2.44,2.8-2.44l86.36.06,12.8.04c1.48,0,2.78,1.42,2.77,2.87,0,1.13-1.49,2.61-2.81,2.62l-9.69.04c-1.35,4.13.23,10,5.14,10.57,4.79.55,9.64.2,14.56.3,2.35.05,4.61-.65,6.08-2.2,1.41-1.5,1.83-3.58,1.84-5.79l.08-17.34c6.19.05,10.67-2.3,14.69-6.39,2.83-2.88,4.5-6.21,4.49-10.58l-.05-41.51c0-5.84,3.52-10.8,9.33-12.23l-.09,53.78.02,35.14-14.3.05c-1.79.01-3.17,1.31-3.13,3,.03,1.54,1.26,2.83,3.26,2.83h108.8c1.51-.01,2.59-1.77,2.61-2.82.03-1.08-.94-2.92-2.25-2.94ZM42.02,167.47l12.18-24.7c1.49-3.02,4.34-4.9,7.69-5.46,16.76-2.8,33.56-2.92,50.29-.08,3.49.59,6.46,2.39,8.03,5.56l12.17,24.69c.28,1.71-.42,3.63-2.86,3.63H44.58c-2.05,0-2.83-1.98-2.56-3.63ZM57.29,196.25c-1.04,2.23-3.9,2.31-6.93,1.74-.35-.07-.74-.14-1.18-.22-2.68-.49-6.73-1.3-9.09-3.36-.58-.5-1.06-1.08-1.38-1.74-.72-1.46-1.36-3.04-1.82-4.69-.7-2.5-.99-5.17-.6-7.87.03-.2.06-.41.09-.61,0,0,.2-1.68,1.46-1.08.17.08.5.26.96.54,2.98,1.77,11.22,7.12,13.94,9.46.1.09.21.17.31.26,2.99,2.63,5.24,5.4,4.23,7.56ZM113.16,208.03h-45.33c-1.74,0-2.99-1.02-3.23-2.56-.21-1.32.97-3.32,2.8-3.32h46.22c1.57-.01,2.78,1.76,2.77,2.82-.01,1.79-1.28,3.06-3.23,3.06ZM138.15,184.83c-.34,2.8-1.27,5.47-2.45,7.84-.35.7-.86,1.31-1.48,1.83-1.7,1.43-4.23,2.24-6.5,2.76-1.41.33-2.72.54-3.67.72-3.03.58-5.89.5-6.93-1.74-1.04-2.23,1.4-5.12,4.54-7.83.77-.66,1.98-1.57,3.39-2.56,4.34-3.06,10.56-7,11.51-7.45.07-.03.14-.06.2-.08.25.02.5.06.75.1.43.32.51,1.06.51,1.06.33,1.8.34,3.6.13,5.33Z"/><path d="M38.66,185.27c.24.78.47,1.48.64,1.99.64,1.94,2.66,3.13,4.68,4.11.63.3,1.59.64,2.65.96,2.2.66,4.8,1.23,5.66,1.19.05,0,.1,0,.14-.01.97-.18,2.17-2.4,1.71-3.09-.21-.31-.62-.47-1.08-.42-.57.05-1.2.43-1.55,1.26-.39.9-2.39.53-4.34-.06-1.3-.39-2.56-.89-3.31-1.18-1.87-.73-2.23-2.33-2.42-2.92-.1-.31-.38-1.58-.67-2.84-.27-1.18-.57-2.35-.73-2.66-.34-.64-1.83-.93-1.83-.93-.89-.27-.22,2.42.45,4.62Z"/><path d="M51.9,194.37c-1.43-.5-3.43-1.18-5.4-1.85-3.5-1.2-6.93-2.35-6.93-2.35,0,0-.2.79.27,1.26.47.47.98,1.05,1.19,1.04,0,0,.6-.22,2.29.42.51.2,1.3.45,2.16.72,1.97.61,4.31,1.26,4.59,1.36.2.07.7.27,1.19.5.5.23.98.5,1.09.68.21.35,1.99.31,2.04,0s.2-.75-.47-1.06c-.15-.06-.91-.33-2.01-.72Z"/><path d="M120.27,190.42c-.46.69.74,2.9,1.71,3.09.42.08,1.67-.13,3.12-.46,1.92-.44,4.2-1.12,5.34-1.67.08-.04.16-.07.24-.12,1.93-.95,3.83-2.12,4.44-3.99.24-.73.63-1.9.95-3.06.53-1.91.89-3.78.14-3.55,0,0-1.49.3-1.83.93-.18.34-.52,1.72-.82,3.02-.26,1.13-.5,2.21-.59,2.49-.2.59-.55,2.2-2.42,2.92-.05.02-.11.04-.17.07-1.31.51-3.85,1.48-5.62,1.68-.93.11-1.65,0-1.86-.51-.64-1.49-2.17-1.53-2.63-.84Z"/><path d="M130.82,191.54c-1.73.59-3.77,1.28-5.57,1.89-2.46.84-4.49,1.55-4.74,1.66-.68.31-.52.75-.47,1.06.05.31,1.83.35,2.04,0,.22-.35,1.87-1.04,2.27-1.18.13-.04.66-.2,1.39-.41,1.62-.47,4.2-1.22,5.36-1.67.17-.06.32-.12.47-.16,1.33-.43,1.82-.26,1.82-.26.21.01.71-.56,1.19-1.04.47-.47.27-1.26.27-1.26,0,0-1.75.59-4.03,1.37Z"/><path class="cls-1" d="M278.19,225.23l-15.18-.18-.1-140.44c0-4.81-3.9-8.46-8.5-8.51l-10.23-.08-.12-12.07c-.02-1.71-1.71-2.76-3.16-2.66-1.54.11-2.6,1.46-2.61,3.2l-.09,11.6h-30.16s-.08-12.1-.08-12.1c0-1.47-1.62-2.72-2.9-2.74-1.26-.01-2.92,1.25-2.93,2.69l-.08,12.1-9.43.07c-4.88-.3-9.33,3.46-9.33,8.49l-.03,45.56c-8.96,1.67-15.17,9.05-15.15,18.28l.06,39.25c.01,7.73-5.22,13.67-13.39,13.22l-.2-12.26c-.11-6.96-3.93-10.61-7.04-15.68l9.96-3.26c4.11-1.35,5.81-6.07,4.88-9.66-1.12-4.35-4.86-6.23-9.24-6.18l-8.47.07c-3.11.03-5.4,1.86-7.29,4.37l-10.58-20.43c-2.42-4.69-6.83-8.09-12.24-8.93-17.43-2.71-34.82-2.92-52.19-.26-5.83.89-10.65,3.84-13.35,9.03l-10.69,20.61c-1.82-2.41-3.95-4.35-6.95-4.36l-10.09-.04c-4.24-.02-7.54,3.12-8.15,7.18-.53,3.55,1.69,7.59,5.6,8.83l9.72,3.08c-4.7,4.95-7.54,10.46-7.54,17.02l-.02,35.24c0,3.31,2.79,6.83,6.18,6.86l14.32.13c3.44.03,6.7-1.88,7.35-5.56.28-1.64.19-3.77.06-5.46l-11.26-.04c-1.65,0-2.78-1.47-2.66-3.02.08-1.15,1.13-2.44,2.8-2.44l86.36.06,12.8.04c1.48,0,2.78,1.42,2.77,2.87,0,1.13-1.49,2.61-2.81,2.62l-9.69.04c-1.35,4.13.23,10,5.14,10.57,4.79.55,9.64.2,14.56.3,2.35.05,4.61-.65,6.08-2.2,1.41-1.5,1.83-3.58,1.84-5.79l.08-17.34c6.19.05,10.67-2.3,14.69-6.39,2.83-2.88,4.5-6.21,4.49-10.58l-.05-41.51c0-5.84,3.52-10.8,9.33-12.23l-.09,53.78.02,35.14-14.3.05c-1.79.01-3.17,1.31-3.13,3,.03,1.54,1.26,2.83,3.26,2.83h108.8c1.51-.01,2.59-1.77,2.61-2.82.03-1.08-.94-2.92-2.25-2.94ZM42.02,167.47l12.18-24.7c1.49-3.02,4.34-4.9,7.69-5.46,16.76-2.8,33.56-2.92,50.29-.08,3.49.59,6.46,2.39,8.03,5.56l12.17,24.69c.28,1.71-.42,3.63-2.86,3.63H44.58c-2.05,0-2.83-1.98-2.56-3.63ZM57.29,196.25c-1.04,2.23-3.9,2.31-6.93,1.74-.35-.07-.74-.14-1.18-.22-2.68-.49-6.73-1.3-9.09-3.36-.58-.5-1.06-1.08-1.38-1.74-.72-1.46-1.36-3.04-1.82-4.69-.7-2.5-.99-5.17-.6-7.87.03-.2.06-.41.09-.61,0,0,.2-1.68,1.46-1.08.17.08.5.26.96.54,2.98,1.77,11.22,7.12,13.94,9.46.1.09.21.17.31.26,2.99,2.63,5.24,5.4,4.23,7.56ZM113.16,208.03h-45.33c-1.74,0-2.99-1.02-3.23-2.56-.21-1.32.97-3.32,2.8-3.32h46.22c1.57-.01,2.78,1.76,2.77,2.82-.01,1.79-1.28,3.06-3.23,3.06ZM138.15,184.83c-.34,2.8-1.27,5.47-2.45,7.84-.35.7-.86,1.31-1.48,1.83-1.7,1.43-4.23,2.24-6.5,2.76-1.41.33-2.72.54-3.67.72-3.03.58-5.89.5-6.93-1.74-1.04-2.23,1.4-5.12,4.54-7.83.77-.66,1.98-1.57,3.39-2.56,4.34-3.06,10.56-7,11.51-7.45.07-.03.14-.06.2-.08.25.02.5.06.75.1.43.32.51,1.06.51,1.06.33,1.8.34,3.6.13,5.33Z"/><path class="cls-1" d="M38.66,185.27c.24.78.47,1.48.64,1.99.64,1.94,2.66,3.13,4.68,4.11.63.3,1.59.64,2.65.96,2.2.66,4.8,1.23,5.66,1.19.05,0,.1,0,.14-.01.97-.18,2.17-2.4,1.71-3.09-.21-.31-.62-.47-1.08-.42-.57.05-1.2.43-1.55,1.26-.39.9-2.39.53-4.34-.06-1.3-.39-2.56-.89-3.31-1.18-1.87-.73-2.23-2.33-2.42-2.92-.1-.31-.38-1.58-.67-2.84-.27-1.18-.57-2.35-.73-2.66-.34-.64-1.83-.93-1.83-.93-.89-.27-.22,2.42.45,4.62Z"/><path class="cls-1" d="M51.9,194.37c-1.43-.5-3.43-1.18-5.4-1.85-3.5-1.2-6.93-2.35-6.93-2.35,0,0-.2.79.27,1.26.47.47.98,1.05,1.19,1.04,0,0,.6-.22,2.29.42.51.2,1.3.45,2.16.72,1.97.61,4.31,1.26,4.59,1.36.2.07.7.27,1.19.5.5.23.98.5,1.09.68.21.35,1.99.31,2.04,0s.2-.75-.47-1.06c-.15-.06-.91-.33-2.01-.72Z"/><path class="cls-1" d="M120.27,190.42c-.46.69.74,2.9,1.71,3.09.42.08,1.67-.13,3.12-.46,1.92-.44,4.2-1.12,5.34-1.67.08-.04.16-.07.24-.12,1.93-.95,3.83-2.12,4.44-3.99.24-.73.63-1.9.95-3.06.53-1.91.89-3.78.14-3.55,0,0-1.49.3-1.83.93-.18.34-.52,1.72-.82,3.02-.26,1.13-.5,2.21-.59,2.49-.2.59-.55,2.2-2.42,2.92-.05.02-.11.04-.17.07-1.31.51-3.85,1.48-5.62,1.68-.93.11-1.65,0-1.86-.51-.64-1.49-2.17-1.53-2.63-.84Z"/><path class="cls-1" d="M130.82,191.54c-1.73.59-3.77,1.28-5.57,1.89-2.46.84-4.49,1.55-4.74,1.66-.68.31-.52.75-.47,1.06.05.31,1.83.35,2.04,0,.22-.35,1.87-1.04,2.27-1.18.13-.04.66-.2,1.39-.41,1.62-.47,4.2-1.22,5.36-1.67.17-.06.32-.12.47-.16,1.33-.43,1.82-.26,1.82-.26.21.01.71-.56,1.19-1.04.47-.47.27-1.26.27-1.26,0,0-1.75.59-4.03,1.37Z"/><path class="cls-2" d="M221.46,208.04c-.31,0-.63-.04-.95-.11-1.88-.44-3.22-2.1-3.24-4.02l-.29-21.73-6.69-.09c-1.45-.02-2.79-.79-3.54-2.04s-.79-2.79-.13-4.08l15.06-29.1c.73-1.41,2.18-2.26,3.72-2.26.32,0,.65.04.98.12,1.87.45,3.2,2.11,3.21,4.04l.18,21.36,6.67.12c1.44.03,2.77.79,3.51,2.03.74,1.24.8,2.77.15,4.05l-14.91,29.42c-.72,1.43-2.18,2.3-3.74,2.3Z"/><path class="cls-1" d="M225.6,172.02l-.19-23.22-15.06,29.1,8.62.12c1.01-.03,2.16.95,2.18,2.05l.32,23.78,14.91-29.42-8.2-.15c-1.28.06-2.56-.9-2.57-2.27Z"/><path class="cls-2" d="M223.64,120.35c-14.75,0-26.7-6.61-26.7-14.77s11.95-14.77,26.7-14.77,26.7,6.61,26.7,14.77-11.95,14.77-26.7,14.77M223.36,89.52c-17.82,0-32.27,7.2-32.27,16.09s14.45,16.09,32.27,16.09,32.27-7.2,32.27-16.09-14.45-16.09-32.27-16.09"/><polygon class="cls-2" points="223.37 113.01 223.38 113.01 224.32 113.01 227.85 106.6 227.85 113.08 227.87 113.08 231.52 113.08 231.52 99.15 228.7 99.15 227.85 99.15 223.37 107.1 218.88 99.15 218.04 99.15 215.21 99.15 215.21 113.08 218.87 113.08 218.88 113.08 218.88 106.6 222.42 113.01 223.36 113.01 223.37 113.01"/><polygon class="cls-2" points="232.69 102.6 237.06 102.6 237.06 112.99 240.53 112.99 240.53 102.6 244.88 102.6 244.88 99.13 232.69 99.13 232.69 102.6"/><polygon class="cls-2" points="201.92 102.6 206.29 102.6 206.29 112.99 209.76 112.99 209.76 102.6 214.11 102.6 214.11 99.13 201.92 99.13 201.92 102.6"/></svg>